<?xml version="1.0" standalone="no"?>
<!DOCTYPE svg PUBLIC "-//W3C//DTD SVG 20010904//EN"
 "http://www.w3.org/TR/2001/REC-SVG-20010904/DTD/svg10.dtd">
<svg version="1.0" xmlns="http://www.w3.org/2000/svg"
 width="140.000000pt" height="175.000000pt" viewBox="0 0 140.000000 175.000000"
 preserveAspectRatio="xMidYMid meet">
<metadata>
Created by potrace 1.16, written by Peter Selinger 2001-2019
</metadata>
<g transform="translate(0.000000,175.000000) scale(0.100000,-0.100000)"
fill="#000000" stroke="none">
<path d="M5 875 l0 -872 695 1 695 1 0 868 0 867 -680 1 c-374 0 -687 2 -695
4 -13 2 -15 -100 -15 -870z m37 14 c-2 -657 0 -835 10 -848 12 -14 11 -14 -4
-2 -17 13 -18 65 -18 847 0 459 3 834 8 834 4 0 6 -374 4 -831z m1326 811 c4
-12 2 -13 -9 -2 -10 9 -72 12 -244 11 l-230 0 60 -18 c121 -35 221 -93 328
-191 l57 -52 0 -433 c0 -425 -4 -530 -21 -519 -5 3 -6 -2 -3 -10 9 -24 -34
-141 -76 -204 -71 -105 -239 -246 -271 -226 -8 4 -9 3 -5 -4 5 -9 67 -12 207
-12 l199 0 3 690 2 690 0 -692 0 -693 -224 -3 c-135 -1 -228 1 -234 7 -6 6 0
12 17 17 14 3 54 24 87 45 33 22 57 34 53 28 -4 -7 -2 -10 5 -8 7 3 11 7 9 10
-2 3 25 36 60 74 76 83 137 201 155 300 8 39 15 64 18 58 2 -7 3 188 3 435 -1
286 -5 446 -11 445 -12 -2 -66 52 -63 63 1 5 -4 10 -11 13 -8 2 -9 -1 -4 -10
5 -8 -3 -5 -16 7 -13 12 -42 33 -64 48 -22 14 -40 31 -40 38 0 6 -6 13 -14 16
-8 3 -11 0 -7 -6 3 -5 -29 5 -71 23 -42 19 -94 37 -116 41 -28 4 -35 9 -26 15
9 5 -2 6 -26 3 -22 -3 -35 -2 -28 3 6 4 -49 8 -122 8 -73 0 -129 -3 -123 -6 5
-4 -11 -10 -36 -13 -25 -4 -51 -4 -58 0 -6 4 -8 3 -5 -3 8 -13 -39 -27 -55
-17 -7 5 -8 2 -3 -6 6 -10 3 -12 -13 -8 -12 4 -20 3 -17 -2 6 -9 -84 -45 -104
-41 -7 1 -10 -2 -7 -7 7 -12 -63 -58 -83 -54 -7 2 -10 -1 -7 -6 3 -5 -7 -20
-22 -33 -14 -13 -20 -16 -13 -6 7 9 9 17 3 17 -12 0 -34 -25 -27 -32 3 -3 -4
-13 -15 -23 -11 -10 -20 -15 -20 -10 0 4 -8 1 -18 -6 -9 -7 -1 4 18 25 80 86
217 170 345 212 l70 23 -140 3 c-77 2 116 4 429 3 497 0 570 -2 574 -15z
m-578 -81 c-10 -7 -3 -8 25 -4 31 5 37 4 25 -5 -12 -9 -7 -10 20 -5 27 5 32 4
20 -5 -12 -9 -10 -10 12 -6 35 8 65 -3 46 -16 -9 -7 -3 -8 17 -4 17 4 25 3 18
-2 -9 -5 6 -17 44 -36 42 -20 53 -23 42 -10 -13 16 -12 16 8 5 13 -6 22 -15
22 -19 -3 -19 2 -26 10 -13 6 10 25 -2 77 -51 40 -39 61 -65 51 -65 -9 0 -14
4 -11 9 3 4 3 8 0 8 -3 0 -12 -16 -20 -35 -14 -33 -17 -35 -65 -35 l-51 0 0
-54 c0 -70 -11 -79 -97 -75 -38 2 -111 2 -163 1 l-94 -2 47 -48 c52 -53 59
-83 26 -118 l-21 -22 101 -113 c55 -62 108 -129 118 -149 24 -51 29 -174 9
-242 -18 -63 -79 -147 -126 -174 -36 -22 -38 -34 -6 -34 15 0 26 7 29 20 3 11
11 20 19 20 8 0 36 25 62 55 26 30 54 55 62 55 10 0 14 12 14 39 0 22 4 42 9
45 16 10 23 112 21 334 -1 158 2 228 11 238 15 18 106 19 106 2 0 -9 -16 -13
-46 -13 -39 0 -46 -3 -49 -21 -2 -12 4 -29 13 -38 9 -9 12 -16 6 -16 -5 0 -14
8 -19 17 -6 11 -9 -38 -8 -139 1 -137 3 -155 16 -145 13 11 13 10 0 -7 -8 -11
-15 -42 -16 -75 -1 -31 -5 -65 -10 -76 -7 -18 -6 -19 12 -5 15 11 16 11 6 0
-6 -8 -12 -24 -12 -36 0 -13 -4 -26 -10 -29 -14 -9 -13 -58 2 -73 15 -15 50
-16 64 -2 7 7 11 5 11 -6 0 -9 -9 -19 -19 -22 -17 -4 -19 -12 -16 -59 4 -51
-2 -67 -26 -68 -5 0 -11 -6 -14 -14 -3 -8 0 -11 7 -7 21 13 11 0 -30 -39 -23
-22 -38 -34 -34 -26 5 9 3 12 -6 9 -8 -3 -14 -10 -14 -16 0 -20 -22 -35 -30
-21 -5 7 -4 10 3 5 15 -9 23 7 12 24 -7 11 -14 12 -34 2 -14 -6 -26 -8 -26 -3
0 12 48 23 63 16 7 -4 3 1 -7 9 -15 12 -16 16 -5 16 8 0 20 -5 27 -12 9 -9 15
-9 25 1 10 11 9 13 -5 8 -21 -7 -36 12 -18 23 7 4 10 15 7 24 -5 12 0 16 16
16 13 0 27 -3 33 -8 5 -4 6 -3 2 2 -4 5 2 20 12 34 21 27 26 67 10 77 -6 4 -8
10 -5 15 3 4 -3 14 -12 21 -15 12 -16 12 -10 -3 5 -13 1 -18 -13 -18 -10 0
-27 -10 -37 -23 -10 -13 -24 -22 -31 -19 -7 2 -10 -2 -6 -12 4 -11 0 -16 -12
-17 -11 -1 -6 -5 11 -9 30 -8 30 -8 4 -9 -15 0 -29 -8 -33 -16 -3 -8 -11 -15
-18 -15 -9 0 -8 3 2 10 12 8 10 10 -9 10 -18 0 -22 -4 -16 -17 4 -10 8 -31 10
-48 1 -16 0 -20 -2 -7 -4 19 -10 24 -33 24 -3 1 -18 -2 -35 -6 -22 -5 -26 -4
-15 4 13 9 12 12 -5 26 -20 15 -20 15 -1 26 45 26 107 94 133 147 37 74 39
181 6 254 -12 26 -17 45 -11 41 6 -4 9 -1 6 7 -3 8 -10 13 -15 12 -5 -1 -58
46 -116 105 l-107 108 40 39 c22 21 40 43 40 49 0 5 -3 6 -7 2 -4 -3 -30 16
-57 43 -30 29 -63 52 -81 56 -16 3 -94 5 -172 6 -165 1 -167 2 -169 88 0 31 1
45 3 31 3 -14 8 -29 13 -34 5 -5 4 -17 -3 -26 -18 -29 7 -50 60 -50 24 0 53 5
64 10 13 7 19 7 19 0 0 -6 72 -10 210 -10 207 0 239 4 263 35 4 6 7 1 5 -10
-3 -18 3 -20 52 -22 30 -1 49 1 41 4 -10 4 -10 7 -1 13 11 7 18 40 19 99 1 22
4 23 56 19 45 -4 55 -2 51 9 -3 8 -1 11 4 8 6 -3 10 5 10 19 0 16 -6 26 -14
26 -20 0 -31 20 -17 29 20 13 -21 40 -51 34 -15 -3 -26 -9 -23 -12 2 -4 -2 -8
-10 -8 -8 0 -12 4 -9 9 3 4 -5 8 -18 8 -18 0 -20 -2 -8 -10 13 -8 12 -10 -2
-10 -10 0 -18 4 -18 9 0 6 -42 9 -97 8 -67 -2 -97 -6 -96 -14 1 -7 -6 -9 -19
-5 -21 5 -21 6 -2 13 11 5 -9 7 -51 6 -46 -1 -69 -6 -68 -13 1 -8 -6 -10 -19
-6 -21 5 -21 6 -2 13 11 4 -16 8 -66 8 -56 1 -91 -3 -99 -11 -11 -10 -13 -10
-7 0 6 9 -20 12 -113 12 -111 0 -148 8 -120 26 8 5 9 3 4 -6 -5 -8 -3 -11 6
-8 8 3 14 10 14 15 0 6 3 15 7 19 4 3 6 -3 3 -15 l-4 -21 397 0 c234 0 392 4
386 9 -26 25 -178 91 -241 105 -139 31 -296 15 -421 -44 -40 -19 -69 -27 -75
-21 -5 5 -4 12 4 16 8 5 10 4 5 -3 -10 -16 -3 -15 38 5 19 9 33 20 30 24 -8
13 127 50 161 44 22 -5 26 -3 15 4 -10 7 21 10 100 10 78 0 110 -3 100 -10z
m-569 -163 c-9 -11 -8 -17 4 -29 17 -18 20 -43 4 -52 -6 -4 -8 -14 -5 -22 4
-8 1 -11 -5 -7 -6 4 -8 20 -4 40 7 40 -3 43 -34 11 -20 -23 -21 -32 -19 -153
l3 -129 36 3 c23 2 43 -3 57 -15 20 -17 21 -26 24 -290 1 -150 -1 -275 -5
-279 -7 -7 -12 47 -9 95 1 18 -2 21 -10 13 -7 -7 -17 -12 -22 -12 -6 0 -3 5 7
11 20 12 24 88 5 107 -9 9 -9 12 0 12 9 0 12 34 11 129 -1 125 -2 130 -22 134
-18 4 -17 5 5 6 34 1 34 35 0 50 -13 6 -20 16 -17 21 3 6 1 10 -4 10 -6 0 -11
-6 -11 -12 0 -9 -3 -10 -8 -2 -14 22 -37 11 -39 -18 -1 -16 1 -26 6 -24 9 6 6
-30 -5 -58 -5 -14 -4 -17 5 -11 10 6 11 3 4 -11 -11 -21 -11 -150 0 -160 10
-11 8 -26 -2 -19 -6 3 -6 -6 -1 -24 4 -16 6 -31 4 -34 -4 -4 -8 -105 -5 -132
1 -5 6 -3 12 5 7 10 9 11 7 2 -2 -8 -8 -13 -13 -12 -10 2 -23 -25 -24 -49 -1
-10 2 -11 13 -2 11 10 16 8 21 -8 3 -12 3 -25 0 -31 -8 -13 20 -41 31 -32 5 4
2 -1 -5 -10 -13 -17 -7 -43 8 -33 5 2 12 -10 16 -28 6 -28 8 -30 15 -12 8 19
9 19 9 -2 1 -12 -4 -25 -9 -28 -6 -4 -7 -13 -1 -23 4 -9 6 -22 4 -29 -2 -6 1
-14 7 -18 6 -4 11 -1 9 6 -5 38 4 55 34 72 32 17 32 17 9 -2 -31 -27 -39 -73
-16 -92 16 -13 17 -12 12 6 -3 14 5 27 26 45 22 17 26 18 15 5 -20 -25 -30
-63 -18 -71 5 -3 7 -9 4 -14 -3 -5 -1 -11 5 -15 5 -3 10 -1 10 5 0 6 5 8 10 5
6 -3 10 -1 10 6 0 7 3 10 6 6 3 -3 -1 -16 -10 -28 -12 -18 -13 -26 -3 -38 7
-10 3 -8 -10 3 -13 10 -21 22 -18 26 5 9 -39 52 -47 45 -2 -3 -14 5 -25 18
-29 31 -60 83 -45 74 17 -11 16 -8 -19 64 -16 35 -28 57 -26 49 15 -54 16 -62
1 -31 -12 28 -13 39 -3 63 6 16 9 32 5 35 -4 4 -10 -4 -13 -17 l-7 -25 -7 25
c-4 14 -7 214 -8 445 l-1 419 42 43 c41 41 63 58 39 29z m-148 -180 c-7 -427
-7 -763 0 -753 5 7 6 -6 2 -28 -3 -24 -2 -35 3 -27 10 15 34 -52 26 -73 -5
-13 21 -75 32 -75 2 0 -2 13 -11 30 -27 53 -16 45 20 -14 39 -64 41 -71 23
-60 -8 4 -10 3 -5 -2 5 -5 14 -9 20 -9 7 0 12 -8 12 -17 0 -9 4 -20 9 -25 5
-5 6 -2 1 7 -4 8 6 2 23 -14 18 -17 32 -37 32 -46 0 -9 6 -23 13 -30 6 -8 -8
3 -31 25 -63 58 -131 157 -161 234 l-26 66 -3 481 c-2 388 0 481 10 481 10 0
12 -33 11 -151z m1167 -298 c-1 -304 -3 -388 -12 -373 -7 11 -11 46 -10 78 1
53 0 58 -17 52 -27 -8 -33 19 -8 34 18 11 20 11 10 0 -17 -17 -17 -35 0 -21 9
8 13 54 15 159 3 136 2 146 -12 128 -14 -18 -15 -17 -1 17 8 21 15 41 14 45
-6 39 3 273 11 273 7 0 10 -137 10 -392z m-621 38 c3 1 11 0 17 -3 12 -4 -181
-198 -198 -198 -6 0 -13 -6 -16 -14 -3 -8 0 -11 5 -8 5 3 -3 -19 -19 -50 -63
-126 -20 -301 96 -385 21 -15 34 -28 29 -28 -6 0 -8 -11 -5 -25 3 -16 0 -25
-8 -25 -7 0 -10 7 -6 15 3 9 -17 35 -54 71 -84 80 -104 127 -104 239 -1 125
22 169 153 300 l101 99 -23 26 -22 25 24 -20 c13 -11 26 -19 30 -19z m207
-212 c1 -9 0 -14 -3 -11 -2 3 -5 9 -5 14 1 14 -30 43 -40 37 -5 -3 -1 -12 9
-19 15 -11 12 -12 -19 -2 -29 9 -34 13 -20 19 25 10 5 9 -67 -3 -35 -5 -78
-17 -95 -25 -28 -14 -29 -14 -12 1 11 8 24 15 29 15 4 0 6 4 3 8 -3 5 15 28
39 52 25 24 45 49 45 54 0 6 -34 -23 -75 -64 -41 -41 -72 -76 -70 -78 7 -7
-58 -77 -68 -74 -5 2 -7 -4 -4 -13 4 -8 2 -15 -2 -15 -5 0 -7 -10 -4 -22 4
-20 3 -20 -6 -6 -19 29 5 66 117 182 l107 111 69 -73 c39 -40 71 -80 72 -88z
m-111 -32 l-20 -5 20 -8 c15 -7 12 -8 -11 -4 -83 15 -179 -82 -160 -161 10
-37 30 -24 37 24 3 23 15 53 28 66 27 29 131 69 157 60 11 -3 8 1 -6 10 -14 8
-21 15 -17 16 13 0 47 -20 47 -29 0 -4 -34 -18 -76 -31 -91 -29 -119 -56 -110
-111 5 -33 3 -37 -29 -52 -22 -11 -36 -13 -41 -6 -3 6 -3 13 0 16 3 4 6 1 6
-5 0 -6 6 -9 14 -6 12 5 12 8 -2 23 -11 11 -20 13 -24 7 -4 -6 -8 11 -8 37 0
27 4 46 9 43 5 -4 7 4 3 16 -4 16 -2 19 8 13 9 -6 11 -4 6 4 -20 31 81 91 149
90 23 -1 31 -4 20 -7z m138 -124 c10 -43 -5 -105 -35 -143 -26 -33 -92 -65
-133 -63 -30 1 -30 1 5 9 31 7 30 8 -14 5 -31 -3 -44 -1 -35 5 8 5 28 9 46 9
77 0 148 72 141 142 -5 49 -32 44 -36 -7 -3 -40 -42 -95 -67 -95 -6 0 -28 -9
-49 -20 -31 -16 -41 -17 -51 -6 -11 11 -3 16 42 30 76 24 106 56 101 105 -3
33 -1 37 17 34 12 -2 14 -1 6 3 -11 5 -8 10 10 20 33 18 42 13 52 -28z"/>
</g>
</svg>
