<?xml version="1.0" standalone="no"?>
<!DOCTYPE svg PUBLIC "-//W3C//DTD SVG 20010904//EN"
 "http://www.w3.org/TR/2001/REC-SVG-20010904/DTD/svg10.dtd">
<svg version="1.0" xmlns="http://www.w3.org/2000/svg"
 width="137.000000pt" height="172.000000pt" viewBox="0 0 137.000000 172.000000"
 preserveAspectRatio="xMidYMid meet">
<metadata>
Created by potrace 1.16, written by Peter Selinger 2001-2019
</metadata>
<g transform="translate(0.000000,172.000000) scale(0.100000,-0.100000)"
fill="#000000" stroke="none">
<path d="M618 1113 l-47 -47 163 -166 c142 -144 165 -172 181 -219 32 -98 5
-211 -67 -278 -66 -62 -195 -83 -280 -45 -118 52 -179 184 -143 308 15 53 28
70 128 171 96 98 108 114 97 128 -12 14 -26 4 -121 -91 -77 -76 -114 -122
-129 -157 -51 -117 -32 -230 51 -322 64 -69 130 -99 224 -99 124 -1 218 62
273 182 21 47 24 65 20 131 -3 53 -12 90 -28 121 -13 25 -85 108 -167 191
-142 145 -143 146 -123 164 20 18 21 18 42 -3 18 -18 19 -23 8 -37 -11 -13
-11 -18 1 -31 13 -12 19 -11 44 16 l29 30 -49 50 c-27 28 -52 50 -55 50 -3 0
-26 -21 -52 -47z"/>
<path d="M565 781 c-73 -43 -99 -88 -103 -175 -3 -52 1 -76 12 -91 24 -32 36
-8 24 47 -9 39 -8 55 6 92 21 54 72 101 125 116 47 12 80 7 138 -23 32 -16 46
-18 54 -10 8 8 0 18 -31 39 -34 23 -57 29 -109 32 -58 3 -72 0 -116 -27z"/>
<path d="M748 702 c-132 -46 -152 -62 -145 -118 l4 -41 -68 -34 c-38 -18 -69
-39 -69 -46 0 -7 1 -13 3 -13 3 0 213 75 239 85 25 10 41 57 29 86 -9 24 -6
27 65 62 41 21 72 42 69 47 -8 13 -4 14 -127 -28z"/>
<path d="M842 687 c-7 -8 -7 -18 -2 -27 14 -22 12 -96 -4 -133 -40 -93 -159
-135 -249 -87 -71 38 -93 18 -28 -25 25 -17 59 -28 95 -32 144 -15 268 131
227 268 -13 44 -24 54 -39 36z"/>
</g>
</svg>
