<?xml version="1.0" standalone="no"?>
<!DOCTYPE svg PUBLIC "-//W3C//DTD SVG 20010904//EN"
 "http://www.w3.org/TR/2001/REC-SVG-20010904/DTD/svg10.dtd">
<svg version="1.0" xmlns="http://www.w3.org/2000/svg"
 width="137.000000pt" height="172.000000pt" viewBox="0 0 137.000000 172.000000"
 preserveAspectRatio="xMidYMid meet">

<g transform="translate(0.000000,172.000000) scale(0.100000,-0.100000)"
fill="#000000" stroke="none">
<path d="M658 1673 c6 -2 18 -2 25 0 6 3 1 5 -13 5 -14 0 -19 -2 -12 -5z"/>
<path d="M553 1663 c9 -2 23 -2 30 0 6 3 -1 5 -18 5 -16 0 -22 -2 -12 -5z"/>
<path d="M763 1663 c9 -2 25 -2 35 0 9 3 1 5 -18 5 -19 0 -27 -2 -17 -5z"/>
<path d="M498 1653 c6 -2 18 -2 25 0 6 3 1 5 -13 5 -14 0 -19 -2 -12 -5z"/>
<path d="M828 1653 c7 -3 16 -2 19 1 4 3 -2 6 -13 5 -11 0 -14 -3 -6 -6z"/>
<path d="M458 1643 c7 -3 16 -2 19 1 4 3 -2 6 -13 5 -11 0 -14 -3 -6 -6z"/>
<path d="M638 1633 c17 -2 47 -2 65 0 17 2 3 4 -33 4 -36 0 -50 -2 -32 -4z"/>
<path d="M915 1630 c27 -12 43 -12 25 0 -8 5 -22 9 -30 9 -10 0 -8 -3 5 -9z"/>
<path d="M380 1620 c-8 -5 -10 -10 -5 -10 6 0 17 5 25 10 8 5 11 10 5 10 -5 0
-17 -5 -25 -10z"/>
<path d="M548 1623 c6 -2 18 -2 25 0 6 3 1 5 -13 5 -14 0 -19 -2 -12 -5z"/>
<path d="M773 1623 c9 -2 23 -2 30 0 6 3 -1 5 -18 5 -16 0 -22 -2 -12 -5z"/>
<path d="M498 1613 c7 -3 16 -2 19 1 4 3 -2 6 -13 5 -11 0 -14 -3 -6 -6z"/>
<path d="M828 1613 c7 -3 16 -2 19 1 4 3 -2 6 -13 5 -11 0 -14 -3 -6 -6z"/>
<path d="M970 1610 c8 -5 20 -10 25 -10 6 0 3 5 -5 10 -8 5 -19 10 -25 10 -5
0 -3 -5 5 -10z"/>
<path d="M868 1603 c7 -3 16 -2 19 1 4 3 -2 6 -13 5 -11 0 -14 -3 -6 -6z"/>
<path d="M304 1584 c-18 -14 -18 -14 6 -3 31 14 36 19 24 19 -6 0 -19 -7 -30
-16z"/>
<path d="M390 1580 c-8 -5 -10 -10 -5 -10 6 0 17 5 25 10 8 5 11 10 5 10 -5 0
-17 -5 -25 -10z"/>
<path d="M940 1580 c8 -5 20 -10 25 -10 6 0 3 5 -5 10 -8 5 -19 10 -25 10 -5
0 -3 -5 5 -10z"/>
<path d="M254 1554 c-18 -14 -18 -15 4 -4 12 6 22 13 22 15 0 8 -5 6 -26 -11z"/>
<path d="M310 1543 c-61 -36 -150 -105 -180 -139 -18 -22 -15 -20 15 7 59 53
113 92 175 127 30 18 51 32 45 32 -5 0 -30 -12 -55 -27z"/>
<path d="M1070 1567 c0 -2 24 -20 53 -39 28 -20 73 -54 100 -78 l47 -42 2
-441 3 -442 2 439 3 440 -32 34 c-40 41 -178 141 -178 129z"/>
<path d="M1060 1519 c36 -23 89 -61 118 -86 l52 -45 2 -426 3 -427 2 424 3
425 -32 34 c-34 34 -188 142 -204 142 -5 0 20 -19 56 -41z"/>
<path d="M170 1496 c-30 -24 -66 -56 -80 -72 -14 -16 -2 -9 25 16 28 25 66 57
85 72 19 15 33 27 30 28 -3 0 -30 -20 -60 -44z"/>
<path d="M235 1390 c0 -25 4 -40 12 -40 7 0 10 6 7 14 -3 9 3 17 16 21 22 7
24 35 3 42 -7 3 -9 -3 -6 -16 3 -12 1 -21 -6 -21 -6 0 -11 9 -11 20 0 11 -3
20 -8 20 -4 0 -7 -18 -7 -40z"/>
<path d="M310 1390 c0 -38 20 -60 20 -22 1 15 2 15 15 -2 8 -11 18 -17 21 -13
4 4 2 13 -4 20 -8 10 -8 17 -1 24 6 6 8 16 5 22 -12 18 -24 12 -19 -9 3 -11 0
-20 -6 -20 -6 0 -11 9 -11 20 0 11 -4 20 -10 20 -5 0 -10 -18 -10 -40z"/>
<path d="M395 1390 c0 -22 5 -40 10 -40 6 0 10 18 10 40 0 22 -4 40 -10 40 -5
0 -10 -18 -10 -40z"/>
<path d="M435 1420 c3 -5 8 -10 11 -10 2 0 4 5 4 10 0 6 -5 10 -11 10 -5 0 -7
-4 -4 -10z"/>
<path d="M475 1417 c-5 -13 -1 -23 14 -33 12 -9 18 -20 15 -26 -4 -7 -2 -8 4
-4 16 10 15 33 -2 43 -7 4 -15 15 -18 23 -5 12 -7 12 -13 -3z"/>
<path d="M505 1420 c3 -5 8 -10 11 -10 2 0 4 5 4 10 0 6 -5 10 -11 10 -5 0 -7
-4 -4 -10z"/>
<path d="M545 1390 c0 -22 5 -40 10 -40 6 0 10 18 10 40 0 22 -4 40 -10 40 -5
0 -10 -18 -10 -40z"/>
<path d="M595 1390 c0 -22 5 -40 10 -40 6 0 10 18 10 40 0 22 -4 40 -10 40 -5
0 -10 -18 -10 -40z"/>
<path d="M642 1411 c11 -17 11 -25 0 -42 -11 -16 -11 -20 -1 -17 7 2 17 12 23
21 12 19 0 47 -23 55 -10 3 -10 -1 1 -17z"/>
<path d="M690 1390 c0 -26 5 -40 13 -40 9 0 11 12 9 40 -2 22 -8 40 -13 40 -5
0 -9 -18 -9 -40z"/>
<path d="M735 1420 c3 -5 8 -10 11 -10 2 0 4 5 4 10 0 6 -5 10 -11 10 -5 0 -7
-4 -4 -10z"/>
<path d="M770 1422 c0 -4 16 -23 35 -42 41 -40 47 -26 8 19 -27 30 -43 39 -43
23z"/>
<path d="M831 1414 c0 -11 3 -14 6 -6 3 7 2 16 -1 19 -3 4 -6 -2 -5 -13z"/>
<path d="M873 1423 c15 -4 18 -12 15 -39 -2 -20 0 -34 7 -34 7 0 9 14 7 36 -4
34 -3 36 17 31 11 -3 19 -1 15 4 -3 5 -22 8 -42 8 -20 -1 -29 -3 -19 -6z"/>
<path d="M955 1390 c0 -23 5 -40 11 -40 6 0 11 17 11 40 0 23 -5 40 -11 40 -6
0 -11 -17 -11 -40z"/>
<path d="M1026 1422 c-3 -6 -2 -13 4 -17 5 -3 10 -17 10 -31 0 -14 6 -24 14
-24 12 0 13 6 4 33 -13 39 -24 52 -32 39z"/>
<path d="M1090 1390 c0 -22 5 -40 10 -40 6 0 10 18 10 40 0 22 -4 40 -10 40
-5 0 -10 -18 -10 -40z"/>
<path d="M65 980 c0 -228 1 -322 2 -208 2 115 2 301 0 415 -1 115 -2 21 -2
-207z"/>
<path d="M105 980 c0 -217 1 -306 2 -197 2 108 2 286 0 395 -1 108 -2 19 -2
-198z"/>
<path d="M470 1360 c0 -5 5 -10 11 -10 5 0 7 5 4 10 -3 6 -8 10 -11 10 -2 0
-4 -4 -4 -10z"/>
<path d="M1135 1360 c-3 -5 -1 -10 4 -10 6 0 11 5 11 10 0 6 -2 10 -4 10 -3 0
-8 -4 -11 -10z"/>
<path d="M350 1260 c0 -22 5 -40 10 -40 6 0 10 18 10 40 0 22 -4 40 -10 40 -5
0 -10 -18 -10 -40z"/>
<path d="M422 1260 c18 -21 34 -35 36 -30 5 14 -40 70 -55 70 -9 0 -1 -16 19
-40z"/>
<path d="M455 1290 c3 -5 8 -10 11 -10 2 0 4 5 4 10 0 6 -5 10 -11 10 -5 0 -7
-4 -4 -10z"/>
<path d="M490 1260 c0 -26 5 -40 13 -40 9 0 11 12 9 40 -2 22 -8 40 -13 40 -5
0 -9 -18 -9 -40z"/>
<path d="M560 1260 c0 -22 5 -40 10 -40 6 0 10 18 10 40 0 22 -4 40 -10 40 -5
0 -10 -18 -10 -40z"/>
<path d="M630 1260 c0 -22 5 -40 10 -40 6 0 10 18 10 40 0 22 -4 40 -10 40 -5
0 -10 -18 -10 -40z"/>
<path d="M704 1284 c3 -9 9 -27 12 -40 3 -13 10 -24 16 -24 5 0 7 9 4 20 -3
11 -9 29 -12 40 -3 11 -10 20 -16 20 -5 0 -7 -7 -4 -16z"/>
<path d="M775 1260 c0 -22 5 -40 10 -40 6 0 10 18 10 40 0 22 -4 40 -10 40 -5
0 -10 -18 -10 -40z"/>
<path d="M845 1260 c0 -22 5 -40 10 -40 6 0 10 18 10 40 0 22 -4 40 -10 40 -5
0 -10 -18 -10 -40z"/>
<path d="M890 1296 c0 -16 24 -66 32 -66 6 0 7 8 3 18 -4 9 -10 25 -12 35 -4
14 -23 25 -23 13z"/>
<path d="M940 1285 c0 -8 2 -15 4 -15 2 0 6 7 10 15 3 8 1 15 -4 15 -6 0 -10
-7 -10 -15z"/>
<path d="M975 1260 c0 -24 5 -40 12 -40 7 0 9 9 5 22 -4 17 -2 20 11 15 10 -4
17 -2 17 3 0 6 -7 10 -16 10 -10 0 -14 6 -10 15 3 8 0 15 -7 15 -7 0 -12 -15
-12 -40z"/>
<path d="M1015 1290 c3 -5 8 -10 11 -10 2 0 4 5 4 10 0 6 -5 10 -11 10 -5 0
-7 -4 -4 -10z"/>
<path d="M395 1230 c-3 -5 -1 -10 4 -10 6 0 11 5 11 10 0 6 -2 10 -4 10 -3 0
-8 -4 -11 -10z"/>
<path d="M675 1230 c-3 -5 -1 -10 4 -10 6 0 11 5 11 10 0 6 -2 10 -4 10 -3 0
-8 -4 -11 -10z"/>
<path d="M618 1113 l-47 -47 163 -166 c142 -144 165 -172 181 -219 32 -98 5
-211 -67 -278 -66 -62 -195 -83 -280 -45 -118 52 -179 184 -143 308 15 53 28
70 128 171 96 98 108 114 97 128 -12 14 -26 4 -121 -91 -77 -76 -114 -122
-129 -157 -51 -117 -32 -230 51 -322 64 -69 130 -99 224 -99 124 -1 218 62
273 182 21 47 24 65 20 131 -3 53 -12 90 -28 121 -13 25 -85 108 -167 191
-142 145 -143 146 -123 164 20 18 21 18 42 -3 18 -18 19 -23 8 -37 -11 -13
-11 -18 1 -31 13 -12 19 -11 44 16 l29 30 -49 50 c-27 28 -52 50 -55 50 -3 0
-26 -21 -52 -47z"/>
<path d="M1140 1066 c0 -10 6 -13 16 -9 12 4 15 2 12 -8 -8 -24 -37 -22 -47 3
-9 22 -10 22 -10 2 -1 -30 26 -51 47 -37 23 14 22 57 0 61 -11 2 -18 -3 -18
-12z"/>
<path d="M176 1055 c4 -8 1 -22 -6 -30 -16 -19 -7 -19 32 1 l32 16 -25 14
c-32 18 -40 17 -33 -1z"/>
<path d="M170 990 c0 -5 6 -10 13 -10 7 -1 6 -5 -5 -13 -14 -11 -12 -13 17
-14 33 -1 52 18 39 38 -7 12 -64 11 -64 -1z m50 -20 c0 -5 -2 -10 -4 -10 -3 0
-8 5 -11 10 -3 6 -1 10 4 10 6 0 11 -4 11 -10z"/>
<path d="M1128 983 l24 -5 -23 -24 -22 -24 36 0 c20 0 37 5 37 10 0 6 -10 10
-22 10 -20 0 -21 1 -3 20 18 20 17 20 -16 19 -25 -1 -28 -3 -11 -6z"/>
<path d="M220 921 c0 -6 -15 -12 -32 -14 l-33 -4 33 -1 c17 -1 32 -6 32 -12 0
-5 5 -10 10 -10 6 0 10 11 10 25 0 14 -4 25 -10 25 -5 0 -10 -4 -10 -9z"/>
<path d="M1128 903 c12 -2 30 -2 40 0 9 3 -1 5 -23 4 -22 0 -30 -2 -17 -4z"/>
<path d="M1111 855 c0 -16 3 -25 7 -18 4 6 21 13 37 16 l30 4 -32 2 c-17 0
-34 7 -36 14 -3 6 -6 -1 -6 -18z"/>
<path d="M178 853 c12 -2 30 -2 40 0 9 3 -1 5 -23 4 -22 0 -30 -2 -17 -4z"/>
<path d="M170 824 c0 -3 6 -12 14 -20 11 -11 16 -11 19 -1 4 9 8 8 16 -3 12
-18 26 -7 18 15 -6 14 -67 23 -67 9z"/>
<path d="M565 781 c-73 -43 -99 -88 -103 -175 -3 -52 1 -76 12 -91 24 -32 36
-8 24 47 -9 39 -8 55 6 92 21 54 72 101 125 116 47 12 80 7 138 -23 32 -16 46
-18 54 -10 8 8 0 18 -31 39 -34 23 -57 29 -109 32 -58 3 -72 0 -116 -27z"/>
<path d="M1134 802 c41 -10 46 -32 7 -32 -17 0 -31 -4 -31 -10 0 -12 40 -13
58 -1 8 5 12 17 10 27 -2 14 -13 19 -38 21 -33 1 -33 1 -6 -5z"/>
<path d="M170 760 c0 -5 14 -10 30 -10 17 0 30 5 30 10 0 6 -13 10 -30 10 -16
0 -30 -4 -30 -10z"/>
<path d="M748 702 c-132 -46 -152 -62 -145 -118 l4 -41 -68 -34 c-38 -18 -69
-39 -69 -46 0 -7 1 -13 3 -13 3 0 213 75 239 85 25 10 41 57 29 86 -9 24 -6
27 65 62 41 21 72 42 69 47 -8 13 -4 14 -127 -28z m-60 -81 c21 -13 10 -46
-16 -49 -27 -4 -40 22 -22 43 14 17 20 18 38 6z"/>
<path d="M1117 733 c-4 -3 -7 -15 -7 -25 0 -14 8 -18 35 -18 l35 0 -22 25
c-23 26 -30 29 -41 18z m28 -23 c-3 -5 -10 -10 -16 -10 -5 0 -9 5 -9 10 0 6 7
10 16 10 8 0 12 -4 9 -10z"/>
<path d="M172 718 c-15 -15 -15 -35 -1 -43 6 -4 10 -1 8 6 -3 29 2 39 21 39
13 0 20 -7 20 -20 0 -11 5 -20 10 -20 14 0 13 23 -2 38 -7 7 -19 12 -28 12 -9
0 -21 -5 -28 -12z"/>
<path d="M842 687 c-7 -8 -7 -18 -2 -27 14 -22 12 -96 -4 -133 -40 -93 -159
-135 -249 -87 -71 38 -93 18 -28 -25 25 -17 59 -28 95 -32 144 -15 268 131
227 268 -13 44 -24 54 -39 36z"/>
<path d="M1129 651 l24 -18 -24 -17 c-23 -16 -23 -16 16 -15 22 1 32 3 22 6
-14 4 -16 8 -6 19 8 10 8 14 0 14 -18 0 -13 18 7 23 9 3 -1 5 -23 6 l-40 1 24
-19z"/>
<path d="M170 650 c0 -5 14 -10 30 -10 17 0 30 5 30 10 0 6 -13 10 -30 10 -16
0 -30 -4 -30 -10z"/>
<path d="M169 611 c8 -5 12 -18 8 -30 -6 -26 1 -26 33 -1 l25 19 -28 10 c-35
13 -58 14 -38 2z"/>
<path d="M1106 564 c-21 -21 -20 -30 6 -48 39 -27 80 18 46 52 -16 16 -33 15
-52 -4z m49 -24 c0 -22 -39 -19 -43 3 -3 15 1 18 20 15 12 -2 23 -10 23 -18z"/>
<path d="M193 543 c-15 -6 -18 -43 -3 -43 5 0 7 6 4 13 -3 9 7 18 28 24 29 10
30 11 8 11 -14 0 -31 -2 -37 -5z"/>
<path d="M72 520 c0 -14 2 -19 5 -12 2 6 2 18 0 25 -3 6 -5 1 -5 -13z"/>
<path d="M112 520 c0 -14 2 -19 5 -12 2 6 2 18 0 25 -3 6 -5 1 -5 -13z"/>
<path d="M1222 500 c0 -14 2 -19 5 -12 2 6 2 18 0 25 -3 6 -5 1 -5 -13z"/>
<path d="M1261 494 c0 -11 3 -14 6 -6 3 7 2 16 -1 19 -3 4 -6 -2 -5 -13z"/>
<path d="M1075 490 c-9 -15 4 -47 22 -54 17 -7 53 20 53 38 0 6 -7 3 -14 -6
-7 -10 -20 -18 -29 -18 -19 0 -29 24 -14 39 8 8 8 11 0 11 -7 0 -15 -5 -18
-10z"/>
<path d="M121 474 c0 -11 3 -14 6 -6 3 7 2 16 -1 19 -3 4 -6 -2 -5 -13z"/>
<path d="M81 464 c0 -11 3 -14 6 -6 3 7 2 16 -1 19 -3 4 -6 -2 -5 -13z"/>
<path d="M237 464 c-16 -9 -27 -18 -24 -20 7 -7 57 18 57 28 0 10 1 10 -33 -8z"/>
<path d="M1251 454 c0 -11 3 -14 6 -6 3 7 2 16 -1 19 -3 4 -6 -2 -5 -13z"/>
<path d="M248 429 c-10 -5 -18 -15 -18 -21 0 -6 7 -5 17 3 15 13 16 11 11 -13
-3 -16 -4 -28 -2 -28 12 0 54 25 54 32 0 5 -9 4 -20 -2 -19 -10 -20 -9 -14 14
7 28 -1 31 -28 15z"/>
<path d="M140 415 c0 -5 5 -17 10 -25 5 -8 10 -10 10 -5 0 6 -5 17 -10 25 -5
8 -10 11 -10 5z"/>
<path d="M100 405 c0 -5 5 -17 10 -25 5 -8 10 -10 10 -5 0 6 -5 17 -10 25 -5
8 -10 11 -10 5z"/>
<path d="M1029 391 l-24 -21 25 -20 c32 -25 37 -25 51 1 9 18 8 25 -8 41 -19
19 -20 19 -44 -1z m41 -22 c0 -15 -4 -19 -16 -15 -9 3 -18 6 -20 6 -2 0 -4 7
-4 15 0 8 9 15 20 15 14 0 20 -7 20 -21z"/>
<path d="M1186 395 c-9 -26 -7 -32 5 -12 6 10 9 21 6 23 -2 3 -7 -2 -11 -11z"/>
<path d="M1226 385 c-9 -26 -7 -32 5 -12 6 10 9 21 6 23 -2 3 -7 -2 -11 -11z"/>
<path d="M320 380 c0 -8 -10 -24 -22 -37 -12 -13 -17 -23 -11 -23 6 0 16 7 23
15 8 10 21 13 34 9 l21 -7 -20 24 c-11 13 -21 26 -22 28 -2 2 -3 -2 -3 -9z"/>
<path d="M1000 335 c11 -13 8 -15 -14 -15 -31 0 -33 -11 -8 -33 23 -21 39 -22
22 -2 -11 13 -8 15 14 15 31 0 33 11 8 33 -23 21 -39 22 -22 2z"/>
<path d="M1135 298 c-16 -24 -54 -67 -84 -97 -38 -37 -44 -46 -19 -27 46 35
154 166 135 166 -2 0 -17 -19 -32 -42z"/>
<path d="M191 310 c17 -35 147 -164 187 -184 47 -24 39 -14 -16 22 -47 30
-113 95 -160 157 -19 25 -21 26 -11 5z"/>
<path d="M342 307 c-17 -18 -19 -26 -10 -35 18 -18 32 -14 17 5 -12 15 -12 16
4 10 15 -6 17 -3 12 13 -7 23 4 26 25 8 12 -11 12 -10 1 5 -17 22 -23 22 -49
-6z"/>
<path d="M1190 310 c-6 -11 -8 -20 -6 -20 3 0 10 9 16 20 6 11 8 20 6 20 -3 0
-10 -9 -16 -20z"/>
<path d="M156 290 c34 -62 154 -173 230 -213 40 -20 76 -37 80 -37 5 0 -24 18
-63 39 -95 50 -155 101 -210 175 -55 74 -62 81 -37 36z"/>
<path d="M396 275 c-18 -28 -15 -55 6 -55 9 0 9 3 1 11 -9 9 -8 18 4 36 9 13
13 26 11 29 -3 2 -13 -7 -22 -21z"/>
<path d="M920 268 c0 -34 15 -55 24 -33 3 10 12 15 21 11 26 -10 16 9 -15 27
-30 18 -30 18 -30 -5z m25 -8 c3 -5 1 -10 -4 -10 -6 0 -11 5 -11 10 0 6 2 10
4 10 3 0 8 -4 11 -10z"/>
<path d="M1106 202 c-58 -64 -61 -69 -17 -27 45 43 99 106 89 105 -2 -1 -34
-36 -72 -78z"/>
<path d="M445 240 c-17 -33 -10 -50 20 -50 6 0 4 4 -4 9 -12 8 -13 14 -3 37
18 39 7 42 -13 4z"/>
<path d="M827 244 c-3 -3 -1 -19 5 -35 10 -29 40 -40 54 -18 4 8 0 9 -15 4
-12 -4 -21 -2 -21 4 0 6 5 11 10 11 6 0 10 4 10 10 0 5 -7 7 -15 4 -8 -4 -15
-2 -15 4 0 6 6 13 13 15 8 4 6 6 -4 6 -9 1 -18 -2 -22 -5z"/>
<path d="M500 215 c-6 -15 -8 -30 -6 -33 3 -3 10 8 16 23 6 15 8 30 6 33 -3 3
-10 -8 -16 -23z"/>
<path d="M542 218 c-26 -26 0 -77 33 -64 17 6 21 36 4 36 -5 0 -8 -4 -4 -9 9
-16 -12 -22 -25 -6 -16 20 -4 35 28 35 21 0 24 2 12 10 -20 13 -34 12 -48 -2z"/>
<path d="M764 216 c-11 -29 1 -51 29 -54 15 -2 27 1 27 6 0 5 -10 8 -22 8 -32
-1 -36 31 -6 43 l23 10 -23 0 c-12 1 -25 -5 -28 -13z"/>
<path d="M614 206 c-11 -27 1 -61 21 -64 20 -3 20 -3 1 13 -17 13 -18 15 -3
15 20 0 23 16 5 23 -8 3 -5 6 5 6 10 1 15 6 12 11 -9 15 -35 12 -41 -4z"/>
<path d="M720 199 c0 -21 -1 -22 -20 -4 -20 18 -20 17 -19 -21 1 -23 4 -30 6
-17 4 22 6 22 29 7 24 -16 24 -16 24 14 0 17 -4 34 -10 37 -6 3 -10 -4 -10
-16z"/>
<path d="M380 185 c0 -7 81 -47 86 -43 2 3 -17 14 -41 26 -25 12 -45 20 -45
17z"/>
<path d="M934 174 c-18 -14 -18 -14 6 -3 31 14 36 19 24 19 -6 0 -19 -7 -30
-16z"/>
<path d="M860 140 c-8 -5 -10 -10 -5 -10 6 0 17 5 25 10 8 5 11 10 5 10 -5 0
-17 -5 -25 -10z"/>
<path d="M490 130 c8 -5 22 -9 30 -9 10 0 8 3 -5 9 -27 12 -43 12 -25 0z"/>
<path d="M920 110 c-19 -11 -31 -19 -27 -20 11 0 67 29 67 35 0 7 -1 7 -40
-15z"/>
<path d="M1000 109 c-22 -18 -22 -19 -3 -10 12 6 25 16 28 21 9 15 3 12 -25
-11z"/>
<path d="M548 113 c7 -3 16 -2 19 1 4 3 -2 6 -13 5 -11 0 -14 -3 -6 -6z"/>
<path d="M788 113 c7 -3 16 -2 19 1 4 3 -2 6 -13 5 -11 0 -14 -3 -6 -6z"/>
<path d="M603 103 c9 -2 23 -2 30 0 6 3 -1 5 -18 5 -16 0 -22 -2 -12 -5z"/>
<path d="M718 103 c6 -2 18 -2 25 0 6 3 1 5 -13 5 -14 0 -19 -2 -12 -5z"/>
<path d="M450 90 c8 -5 20 -10 25 -10 6 0 3 5 -5 10 -8 5 -19 10 -25 10 -5 0
-3 -5 5 -10z"/>
<path d="M845 80 c-13 -6 -15 -9 -5 -9 8 0 22 4 30 9 18 12 2 12 -25 0z"/>
<path d="M940 75 c-14 -8 -20 -14 -14 -15 5 0 19 7 30 15 24 18 16 19 -16 0z"/>
<path d="M528 63 c7 -3 16 -2 19 1 4 3 -2 6 -13 5 -11 0 -14 -3 -6 -6z"/>
<path d="M798 63 c7 -3 16 -2 19 1 4 3 -2 6 -13 5 -11 0 -14 -3 -6 -6z"/>
<path d="M573 53 c9 -2 23 -2 30 0 6 3 -1 5 -18 5 -16 0 -22 -2 -12 -5z"/>
<path d="M743 53 c9 -2 23 -2 30 0 6 3 -1 5 -18 5 -16 0 -22 -2 -12 -5z"/>
<path d="M668 43 c7 -3 16 -2 19 1 4 3 -2 6 -13 5 -11 0 -14 -3 -6 -6z"/>
<path d="M488 33 c7 -3 16 -2 19 1 4 3 -2 6 -13 5 -11 0 -14 -3 -6 -6z"/>
<path d="M528 23 c7 -3 16 -2 19 1 4 3 -2 6 -13 5 -11 0 -14 -3 -6 -6z"/>
<path d="M808 23 c7 -3 16 -2 19 1 4 3 -2 6 -13 5 -11 0 -14 -3 -6 -6z"/>
<path d="M573 13 c9 -2 23 -2 30 0 6 3 -1 5 -18 5 -16 0 -22 -2 -12 -5z"/>
<path d="M743 13 c9 -2 23 -2 30 0 6 3 -1 5 -18 5 -16 0 -22 -2 -12 -5z"/>
</g>
</svg>
