<?xml version="1.0" standalone="no"?>
<!DOCTYPE svg PUBLIC "-//W3C//DTD SVG 20010904//EN"
 "http://www.w3.org/TR/2001/REC-SVG-20010904/DTD/svg10.dtd">
<svg version="1.0" xmlns="http://www.w3.org/2000/svg"
 width="1416.000000pt" height="664.000000pt" viewBox="0 0 1416.000000 664.000000"
 preserveAspectRatio="xMidYMid meet">
<metadata>
Created by potrace 1.16, written by Peter Selinger 2001-2019
</metadata>
<g transform="translate(0.000000,664.000000) scale(0.100000,-0.100000)"
fill="#000000" stroke="none">
<path d="M7045 3480 l-28 -29 107 -112 c78 -83 109 -122 117 -151 28 -106 -52
-208 -164 -208 -85 0 -157 75 -157 162 0 63 9 79 87 159 41 42 63 72 58 79
-10 17 -132 -104 -156 -155 -46 -100 0 -216 103 -260 49 -20 94 -19 143 4 76
35 115 95 115 177 0 68 -20 101 -119 199 -89 87 -102 107 -81 120 17 11 42
-15 30 -30 -8 -9 -8 -15 0 -20 13 -8 40 12 40 29 0 12 -51 66 -61 66 -3 0 -18
-13 -34 -30z"/>
<path d="M7007 3262 c-41 -26 -72 -96 -61 -139 13 -51 28 -40 25 17 -2 46 1
54 32 85 28 28 43 35 75 35 24 0 49 -7 63 -19 l23 -18 -55 -18 c-61 -19 -81
-38 -73 -69 4 -17 -4 -26 -40 -45 -25 -13 -43 -28 -40 -33 3 -5 9 -7 12 -4 3
4 16 -4 28 -15 35 -33 113 -38 157 -10 47 29 71 82 62 135 -3 23 -6 49 -6 59
0 12 -5 17 -15 13 -8 -3 -14 -1 -14 4 0 17 -58 40 -102 40 -24 0 -56 -8 -71
-18z m180 -58 c-3 -3 -1 -17 4 -31 21 -55 -29 -129 -93 -139 -31 -5 -98 16
-98 31 0 2 25 12 56 22 57 18 79 41 70 71 -4 11 3 22 22 34 27 16 51 24 39 12z"/>
</g>
</svg>
